<?xml version="1.0" standalone="no"?>
<!DOCTYPE svg PUBLIC "-//W3C//DTD SVG 20010904//EN"
 "http://www.w3.org/TR/2001/REC-SVG-20010904/DTD/svg10.dtd">
<svg version="1.0" xmlns="http://www.w3.org/2000/svg"
 width="250.000000pt" height="250.000000pt" viewBox="0 0 250.000000 250.000000"
 preserveAspectRatio="xMidYMid meet">
<metadata>
Created by potrace 1.11, written by Peter Selinger 2001-2013
</metadata>
<g transform="translate(0.000000,250.000000) scale(0.100000,-0.100000)"
fill="#000000" stroke="none">
<path d="M64 2380 c-32 -12 -49 -63 -35 -99 15 -35 19 -37 210 -111 85 -32
157 -62 162 -67 7 -8 57 -148 239 -673 43 -124 100 -287 126 -362 45 -129 47
-139 30 -151 -22 -16 -146 -359 -141 -389 7 -35 31 -52 75 -52 22 0 40 -2 40
-4 0 -3 -9 -19 -19 -36 -38 -62 -43 -141 -13 -208 51 -115 169 -170 286 -133
139 44 204 197 139 325 l-28 55 252 0 c139 0 252 -2 250 -5 -84 -140 -56 -283
70 -357 60 -35 157 -37 218 -5 48 24 95 74 116 122 24 53 17 149 -14 203 l-25
43 31 -1 c48 -2 87 15 97 41 12 30 -2 68 -27 79 -10 5 -301 9 -648 11 -346 1
-633 2 -637 3 -5 0 1 25 13 53 11 29 27 73 35 98 l15 45 602 -1 c694 -2 644
-8 676 91 11 33 42 130 69 215 28 85 89 277 137 425 47 149 91 281 96 294 6
13 12 41 15 62 5 32 1 43 -20 64 -14 14 -35 25 -48 26 -13 0 -421 1 -908 2
l-885 2 -33 95 c-42 120 -51 139 -76 152 -38 21 -371 149 -396 152 -14 3 -34
1 -46 -4z m655 -627 l0 -78 -24 65 c-31 82 -31 90 0 90 25 0 25 -1 24 -77z
m90 -130 c0 -186 -2 -204 -14 -173 -9 24 -14 88 -14 208 -1 147 1 172 14 172
13 0 15 -29 14 -207z m90 -130 c0 -295 -2 -334 -14 -303 -10 26 -14 109 -14
338 -1 262 1 302 14 302 13 0 15 -44 14 -337z m111 -103 c0 -384 -2 -440 -15
-440 -13 0 -15 56 -15 440 0 384 2 440 15 440 13 0 15 -56 15 -440z m150 0 l0
-440 -45 0 -45 0 0 440 0 440 45 0 45 0 0 -440z m70 0 c0 -433 0 -440 -20
-440 -20 0 -20 7 -20 440 0 433 0 440 20 440 20 0 20 -7 20 -440z m27 -223
c-1 -122 -2 -22 -2 223 0 245 1 345 2 222 2 -122 2 -322 0 -445z m63 223 c0
-287 -3 -440 -10 -440 -7 0 -10 153 -10 440 0 287 3 440 10 440 7 0 10 -153
10 -440z m80 0 c0 -433 0 -440 -20 -440 -20 0 -20 7 -20 440 0 433 0 440 20
440 20 0 20 -7 20 -440z m120 0 l0 -440 -45 0 -45 0 0 440 0 440 45 0 45 0 0
-440z m57 -223 c-1 -122 -2 -22 -2 223 0 245 1 345 2 222 2 -122 2 -322 0
-445z m73 223 c0 -433 0 -440 -20 -440 -20 0 -20 7 -20 440 0 433 0 440 20
440 20 0 20 -7 20 -440z m37 -223 c-1 -122 -2 -22 -2 223 0 245 1 345 2 222 2
-122 2 -322 0 -445z m93 223 l0 -440 -30 0 -30 0 0 440 0 440 30 0 30 0 0
-440z m27 -223 c-1 -122 -2 -22 -2 223 0 245 1 345 2 222 2 -122 2 -322 0
-445z m30 0 c-1 -122 -2 -22 -2 223 0 245 1 345 2 222 2 -122 2 -322 0 -445z
m30 0 c-1 -122 -2 -22 -2 223 0 245 1 345 2 222 2 -122 2 -322 0 -445z m93
223 l0 -440 -25 0 -25 0 0 440 0 440 25 0 25 0 0 -440z m67 -197 c-1 -120 -2
-24 -2 212 0 237 1 335 2 218 2 -116 2 -310 0 -430z m83 349 c0 -277 -1 -291
-24 -368 l-25 -79 0 368 -1 367 25 0 25 0 0 -288z m69 101 c0 -157 -4 -196
-19 -238 l-18 -50 -1 238 c-1 231 0 237 19 237 19 0 20 -6 19 -187z m59 85
c-2 -57 -9 -112 -16 -123 -9 -16 -11 3 -12 103 0 106 2 122 16 122 14 0 16
-13 12 -102z m51 90 c0 -7 -4 -22 -9 -33 -7 -17 -9 -15 -9 13 -1 17 4 32 9 32
6 0 10 -6 9 -12z m-1278 -1415 c59 -35 59 -141 0 -172 -73 -40 -162 6 -161 84
1 84 87 131 161 88z m862 6 c30 -14 57 -69 51 -104 -7 -37 -32 -73 -57 -81
-52 -17 -78 -12 -113 21 -88 84 7 215 119 164z"/>
</g>
</svg>
